# xmcd
#
# Track frame offsets:
#	150
#	12237
#	24183
#	36577
#	48642
#	57090
#	71130
#	80599
#	94754
#	104503
#	114089
#	126656
#	136363
#	144963
#	156695
#	167648
#	180569
#	193198
#	206481
#	216221
#	229737
#	232472
#	240826
#	250497
#	258968
#	268700
#	278282
#	287204
#	298192
#	319348
#	333020
#	341735
#	351065
#
# Disc length: 4788 seconds
#
# Revision: 1
# Processed by: cddbd v1.5.1PL0 Copyright (c) Steve Scherf et al.
# Submitted via: EasyCDDAExtractor 6.2.0.3
#
DISCID=0112b221
DTITLE=Jerry Lee Lewis - I've Always Been Country - The Sun Hillbilly Sessions
DYEAR=2002
DGENRE=Country
TTITLE0=Crazy Arms (piano and vocal)
TTITLE1=You're The Only Star (In My Blue Heaven)
TTITLE2=Deep- Elem blues
TTITLE3=Born To Lose
TTITLE4=My Carolina Sunshine Girl
TTITLE5=Cold, Cold Heart (1957 recording)
TTITLE6=Little Green Valley
TTITLE7=Crazy Heart
TTITLE8=Shame On You
TTITLE9=Singin' The Blues
TTITLE10=The Wild Side Of Life
TTITLE11=I'm The Guilty One
TTITLE12=Don't Drop It
TTITLE13=Old Pal Of Yesterday
TTITLE14=Slipping Around
TTITLE15=Fols Like Me
TTITLE16=Turn Around
TTITLE17=You Win Again (undubbed version)
TTITLE18=Lovesick Blues
TTITLE19=Who Will But The Wine (undubbed version)
TTITLE20=Live And Let Live
TTITLE21=You Can't Help It (I Can't Help It)
TTITLE22=Release Me
TTITLE23=I Love You Because
TTITLE24=I'll Sail My Ship Alone
TTITLE25=Hillbilly Music
TTITLE26=Home
TTITLE27=Settin' The Woods On Fire
TTITLE28=Mexicali Rose (Parts 1 and 2)
TTITLE29=Seasons Of My Heart (Duet with Linda Gail Lewis)
TTITLE30=Invitation To Your Party
TTITLE31=One Minute Past Eternity
TTITLE32=Waiting For A Train
EXTD=
EXTT0=
EXTT1=
EXTT2=
EXTT3=
EXTT4=
EXTT5=
EXTT6=
EXTT7=
EXTT8=
EXTT9=
EXTT10=
EXTT11=
EXTT12=
EXTT13=
EXTT14=
EXTT15=
EXTT16=
EXTT17=
EXTT18=
EXTT19=
EXTT20=
EXTT21=
EXTT22=
EXTT23=
EXTT24=
EXTT25=
EXTT26=
EXTT27=
EXTT28=
EXTT29=
EXTT30=
EXTT31=
EXTT32=
PLAYORDER=
